# xmcd CD database file
#
# Track frame offsets:
#	150
#	17696
#	26857
#	42273
#	55440
#	72994
#	82174
#	96773
#	112212
#	120696
#	134875
#	142873
#	157918
#	169274
#	187768
#	207504
#	221434
#
# Disc length: 3150 seconds
#
# Revision: 0
# Processed by: cddbd v1.5.1PL0 Copyright (c) Steve Scherf et al.
# Submitted via: CDex 1.51
#
DISCID=fe0c4c11
DTITLE=Duo Campion - Vachon - Duke Ellington
DYEAR=2005
DGENRE=Jazz
TTITLE0=Washington Wabble
TTITLE1=Scattin' at kit kat
TTITLE2=Blue bubbles
TTITLE3=New world a-coming
TTITLE4=Day-dream
TTITLE5=Satin doll
TTITLE6=Rent party blues
TTITLE7=Serenade to Sweden
TTITLE8=A portrait of Bert Williams
TTITLE9=In a sentimental mood
TTITLE10=Freedom (word you heard)
TTITLE11=I never felt this way before
TTITLE12=Sophisticated lady
TTITLE13=Just a-sittin' and a-rockin'
TTITLE14=I got it bad
TTITLE15=Rub-a-tub-lues
TTITLE16=Rent party blues
EXTD=YEAR: 2005
EXTT0=
EXTT1=
EXTT2=
EXTT3=
EXTT4=
EXTT5=
EXTT6=
EXTT7=
EXTT8=
EXTT9=
EXTT10=
EXTT11=
EXTT12=
EXTT13=
EXTT14=
EXTT15=
EXTT16=
PLAYORDER=
